<svg width="17" height="17" viewBox="0 0 17 17" fill="none" xmlns="http://www.w3.org/2000/svg">
<path d="M8.28325 0.0148749L8.5 0C8.88513 1.62412e-05 9.25723 0.139491 9.54748 0.39263C9.83773 0.645769 10.0265 0.995448 10.0789 1.377L10.0938 1.59375V6.90413L15.4062 6.90625C15.7914 6.90627 16.1635 7.04574 16.4537 7.29888C16.744 7.55202 16.9327 7.9017 16.9851 8.28325L17 8.5C17 8.88513 16.8605 9.25723 16.6074 9.54748C16.3542 9.83773 16.0046 10.0265 15.623 10.0789L15.4062 10.0938L10.0938 10.0916V15.4062C10.0937 15.7914 9.95426 16.1635 9.70112 16.4537C9.44798 16.744 9.0983 16.9327 8.71675 16.9851L8.5 17C8.11487 17 7.74277 16.8605 7.45252 16.6074C7.16227 16.3542 6.9735 16.0046 6.92112 15.623L6.90625 15.4062V10.0916L1.59375 10.0938C1.20862 10.0937 0.836523 9.95426 0.546272 9.70112C0.256022 9.44798 0.0672526 9.0983 0.0148749 8.71675L0 8.5C1.62412e-05 8.11487 0.139491 7.74277 0.39263 7.45252C0.645769 7.16227 0.995448 6.9735 1.377 6.92112L1.59375 6.90625L6.90625 6.90413V1.59375C6.90627 1.20862 7.04574 0.836523 7.29888 0.546272C7.55202 0.256022 7.9017 0.0672526 8.28325 0.0148749L8.5 0L8.28325 0.0148749Z" fill="#C4C4C4"/>
</svg>
