<svg width="22" height="18" viewBox="0 0 22 18" fill="none" xmlns="http://www.w3.org/2000/svg">
<path d="M21.12 3.13902H11.2475L8.02175 0.0603658C7.98071 0.0220274 7.92672 0.000480997 7.8705 0H0.88C0.39325 0 0 0.392378 0 0.878049V17.122C0 17.6076 0.39325 18 0.88 18H21.12C21.6068 18 22 17.6076 22 17.122V4.01707C22 3.5314 21.6068 3.13902 21.12 3.13902ZM14.3 10.7835C14.3 10.8878 14.2065 10.9756 14.0938 10.9756H11.77V13.3052C11.77 13.4122 11.682 13.5 11.5775 13.5H10.4225C10.318 13.5 10.23 13.4122 10.23 13.3052V10.9756H7.90625C7.7935 10.9756 7.7 10.8878 7.7 10.7835V9.6311C7.7 9.52683 7.7935 9.43902 7.90625 9.43902H10.23V7.10945C10.23 7.00244 10.318 6.91463 10.4225 6.91463H11.5775C11.682 6.91463 11.77 7.00244 11.77 7.10945V9.43902H14.0938C14.2065 9.43902 14.3 9.52683 14.3 9.6311V10.7835Z" fill="white"/>
</svg>
